<svg width="512" height="512" viewBox="0 0 512 512" fill="none" xmlns="http://www.w3.org/2000/svg">
<rect width="512" height="512"/>
<path d="M488 271.925C488 305.918 481.908 337.645 469.723 367.105C457.538 396.282 440.962 421.635 419.993 443.164C399.024 464.41 374.371 481.265 346.035 493.729C317.982 505.91 287.803 512 255.5 512C223.48 512 193.302 505.91 164.965 493.729C136.912 481.265 112.26 464.41 91.0073 443.164C70.0384 421.635 53.4616 396.282 41.277 367.105C29.0923 337.645 23 305.918 23 271.925C23 237.365 29.0923 205.355 41.277 175.895C53.4616 146.434 70.0384 121.081 91.0073 99.8357C112.26 78.3068 136.912 61.452 164.965 49.2712C193.302 37.0904 223.48 31 255.5 31C287.803 31 317.982 36.8071 346.035 48.4214C374.371 59.7524 399.024 76.0406 419.993 97.2862C440.962 118.249 457.538 143.602 469.723 173.345C481.908 202.806 488 235.666 488 271.925ZM371.112 271.925C371.112 253.229 367.995 236.374 361.761 221.36C355.811 206.064 347.593 193.033 337.109 182.269C326.624 171.221 314.298 162.864 300.13 157.199C286.245 151.25 271.368 148.276 255.5 148.276C239.632 148.276 224.613 151.25 210.445 157.199C196.56 162.864 184.376 171.221 173.891 182.269C163.69 193.033 155.614 206.064 149.664 221.36C143.713 236.374 140.738 253.229 140.738 271.925C140.738 289.488 143.713 305.776 149.664 320.79C155.614 335.803 163.69 348.834 173.891 359.882C184.376 370.929 196.56 379.711 210.445 386.226C224.613 392.458 239.632 395.574 255.5 395.574C271.368 395.574 286.245 392.6 300.13 386.651C314.298 380.702 326.624 372.346 337.109 361.581C347.593 350.817 355.811 337.786 361.761 322.489C367.995 307.193 371.112 290.338 371.112 271.925Z" fill="black"/>
<path d="M401.004 8.02441C402.803 6.02837 404.983 4.8226 408.475 5.02148C414.053 5.3393 417.165 9.57855 420.113 16.999C434.458 53.0995 459.069 78.8147 496.069 93.0039C502.444 95.4484 505.967 99.7813 506.796 103.623C507.525 107.004 506.422 111.21 500.768 114.799C462.682 129.924 434.424 153.934 419.438 192.096C418.102 195.496 416.532 198.048 414.641 199.685C412.901 201.19 410.617 202.168 407.138 201.976C404.159 201.811 402.167 200.73 400.611 199.158C398.932 197.462 397.597 195.013 396.458 191.951C382.821 155.282 356.247 132.035 321.151 117.846C317.67 116.438 314.93 114.919 313.042 113.024C311.301 111.277 310.135 109.068 310.012 105.742C309.87 101.895 311.002 99.4659 312.722 97.624C314.612 95.5988 317.524 93.9603 321.438 92.4775C357.743 78.7229 381.751 52.8788 395.868 17.4941C397.436 13.5653 398.964 10.2873 401.004 8.02441Z" fill="url(#paint0_linear_16_2)" stroke="white" stroke-width="10"/>
<defs>
<linearGradient id="paint0_linear_16_2" x1="457.041" y1="53.7028" x2="366.216" y2="155.084" gradientUnits="userSpaceOnUse">
<stop stop-color="#F4AD43"/>
<stop offset="0.5" stop-color="#F6267F"/>
<stop offset="1" stop-color="#C45AF9"/>
</linearGradient>
</defs>
</svg>
