<svg width="1028" height="512" viewBox="0 0 1028 512" fill="none" xmlns="http://www.w3.org/2000/svg">
<path d="M468.505 114.576C488.147 114.576 506.573 118.14 523.782 125.267C541.165 132.22 556.288 142.128 569.151 154.991C582.188 167.854 592.444 183.412 599.919 201.664C607.394 219.742 611.131 239.819 611.131 261.896C611.131 284.841 607.394 305.526 599.919 323.952C592.444 342.204 582.188 357.762 569.151 370.625C556.288 383.314 541.165 393.049 523.782 399.828C506.573 406.607 488.147 409.997 468.505 409.997C462.247 409.997 455.989 409.302 449.731 407.911C443.647 406.521 437.563 404.695 431.479 402.436C425.569 400.002 419.659 397.308 413.749 394.353C408.013 391.397 402.45 388.355 397.062 385.227V510.383H325.357V124.745H342.566L370.987 158.381C377.419 152.297 384.459 146.561 392.107 141.172C399.756 135.783 407.665 131.177 415.835 127.353C424.179 123.354 432.783 120.226 441.648 117.966C450.514 115.706 459.466 114.576 468.505 114.576ZM143.359 114.055C163.176 114.055 181.688 117.618 198.897 124.745C216.28 131.698 231.403 141.693 244.267 154.73C257.13 167.594 267.299 183.151 274.773 201.403C282.248 219.481 285.985 239.646 285.985 261.896C285.985 282.755 282.248 302.224 274.773 320.302C267.299 338.206 257.13 353.764 244.267 366.975C231.403 380.012 216.28 390.354 198.897 398.003C181.688 405.478 163.176 409.215 143.359 409.215C123.717 409.215 105.204 405.478 87.8213 398.003C70.6123 390.354 55.4893 380.012 42.4521 366.975C29.5889 353.764 19.4199 338.206 11.9453 320.302C4.4707 302.224 0.733398 282.755 0.733398 261.896C0.733398 240.688 4.4707 221.046 11.9453 202.968C19.4199 184.89 29.5889 169.332 42.4521 156.295C55.4893 143.084 70.6123 132.741 87.8213 125.267C105.204 117.792 123.717 114.055 143.359 114.055ZM722.468 404H650.764V124.745H722.468V404ZM902.119 119.27C919.154 119.27 935.233 122.572 950.356 129.178C965.479 135.609 978.69 144.562 989.989 156.034C1001.29 167.333 1010.15 180.631 1016.58 195.928C1023.19 211.051 1026.49 227.217 1026.49 244.426V404H955.311V244.426C955.311 237.125 953.92 230.259 951.139 223.827C948.357 217.222 944.533 211.485 939.666 206.618C934.799 201.751 929.149 197.927 922.718 195.146C916.286 192.364 909.42 190.974 902.119 190.974C894.645 190.974 887.604 192.364 880.999 195.146C874.394 197.927 868.657 201.751 863.79 206.618C858.923 211.485 855.099 217.222 852.317 223.827C849.536 230.259 848.146 237.125 848.146 244.426V404H776.963V124.745H794.172L817.639 151.862C829.111 141.433 842.062 133.437 856.489 127.874C871.091 122.138 886.301 119.27 902.119 119.27ZM143.359 186.02C133.625 186.02 124.412 187.845 115.721 191.495C107.203 194.972 99.7285 200.1 93.2969 206.879C87.0391 213.484 82.085 221.48 78.4346 230.867C74.7842 240.08 72.959 250.423 72.959 261.896C72.959 272.673 74.7842 282.668 78.4346 291.881C82.085 301.094 87.0391 309.09 93.2969 315.869C99.7285 322.648 107.203 328.037 115.721 332.035C124.412 335.859 133.625 337.771 143.359 337.771C153.094 337.771 162.22 335.946 170.737 332.296C179.429 328.646 186.99 323.518 193.422 316.912C199.854 310.307 204.895 302.311 208.545 292.924C212.369 283.537 214.281 273.194 214.281 261.896C214.281 250.423 212.369 240.08 208.545 230.867C204.895 221.48 199.854 213.484 193.422 206.879C186.99 200.1 179.429 194.972 170.737 191.495C162.22 187.845 153.094 186.02 143.359 186.02ZM468.505 186.02C458.771 186.02 449.558 187.758 440.866 191.234C432.349 194.711 424.874 199.752 418.442 206.357C412.011 212.789 406.883 220.698 403.059 230.085C399.408 239.472 397.583 250.075 397.583 261.896C397.583 273.194 399.408 283.537 403.059 292.924C406.883 302.311 412.011 310.307 418.442 316.912C424.874 323.518 432.349 328.646 440.866 332.296C449.558 335.946 458.771 337.771 468.505 337.771C478.239 337.771 487.452 335.946 496.144 332.296C504.835 328.646 512.396 323.518 518.828 316.912C525.26 310.307 530.301 302.311 533.951 292.924C537.775 283.537 539.688 273.194 539.688 261.896C539.688 250.075 537.775 239.472 533.951 230.085C530.301 220.698 525.26 212.789 518.828 206.357C512.396 199.752 504.835 194.711 496.144 191.234C487.452 187.758 478.239 186.02 468.505 186.02Z" fill="white"/>
<path d="M735.601 61.0778C716.458 68.6168 702.5 80.4854 695.096 99.3038C693.58 103.158 691.106 106.252 686.257 105.984C681.884 105.742 679.798 102.629 678.516 99.1861C671.817 81.2055 658.794 69.7697 641.324 62.7196C637.528 61.1875 634.183 58.9827 634.008 54.243C633.814 49.0003 637.239 46.5818 641.524 44.9613C659.406 38.1988 671.229 25.5357 678.235 8.00947C679.838 3.9974 681.931 -0.286248 687.23 0.0150242C691.798 0.274696 693.925 3.9557 695.439 7.75936C702.55 25.6218 714.668 38.2404 732.941 45.2348C740.683 48.1983 742.764 53.908 735.601 61.0778Z" fill="url(#paint0_linear_52_2)"/>
<defs>
<linearGradient id="paint0_linear_52_2" x1="712" y1="27.5" x2="665.5" y2="79.5" gradientUnits="userSpaceOnUse">
<stop stop-color="#F4AD43"/>
<stop offset="0.5" stop-color="#F6267F"/>
<stop offset="1" stop-color="#C45AF9"/>
</linearGradient>
</defs>
</svg>
